<svg width="24" height="24" viewBox="0 0 24 24" fill="none" xmlns="http://www.w3.org/2000/svg">
<g clip-path="url(#clip0_34_896)">
<path d="M15.6444 5.03442C12.1556 5.03442 9.28857 7.86201 9.28857 11.3793V21.3103C9.28857 21.6896 9.59946 21.9999 9.97942 21.9999H13.5718C13.9518 21.9999 14.2627 21.6896 14.2627 21.3103V11.6551C14.2627 10.8965 14.8844 10.2758 15.6444 10.2758C16.4043 10.2758 17.0261 10.8965 17.0261 11.6551V21.3103C17.0261 21.6896 17.3369 21.9999 17.7169 21.9999H21.3093C21.6893 21.9999 22.0001 21.6896 22.0001 21.3103V11.3793C22.0001 7.89649 19.1677 5.03442 15.6444 5.03442Z" fill="#505F79"/>
<path d="M6.28325 8.27588H2.69085C2.31088 8.27588 2 8.58622 2 8.96553V21.3104C2 21.6897 2.31088 22 2.69085 22H6.28325C6.66321 22 6.97409 21.6897 6.97409 21.3104V8.96553C6.97409 8.58622 6.66321 8.27588 6.28325 8.27588Z" fill="#505F79"/>
<path d="M4.48705 2C3.10535 2 2 3.10345 2 4.48276C2 5.86207 3.10535 6.96552 4.48705 6.96552C5.86874 6.96552 6.97409 5.86207 6.97409 4.48276C6.97409 3.10345 5.86874 2 4.48705 2Z" fill="#505F79"/>
</g>
<defs>
<clipPath id="clip0_34_896">
<rect width="20" height="20" fill="white" transform="translate(2 2)"/>
</clipPath>
</defs>
</svg>
