<svg width="24" height="24" viewBox="0 0 24 24" fill="none" xmlns="http://www.w3.org/2000/svg">
<g clip-path="url(#clip0_34_906)">
<path d="M11.464 22C16.1607 22 19.0832 18.5392 19.0832 14.0742C19.0832 12.3908 18.809 10.8708 16.8982 10.4142C17.3632 9.14083 18.7048 5.4575 18.7048 4.2775C18.7048 3.23833 18.0798 2.3675 16.9657 2.3675C15.1898 2.3675 13.5982 7.51167 13.0998 8.73833C12.714 7.625 10.9073 2 9.31484 2C8.07734 2 7.49651 2.89417 7.49651 4.01917C7.49651 5.39833 8.85734 8.9725 9.35068 10.3475C9.10068 10.2575 8.82984 10.1792 8.55401 10.1792C7.62234 10.1792 6.63151 11.3158 6.63151 12.2342C6.63151 12.5817 6.82651 13.07 6.94984 13.3942C5.48151 13.785 4.91651 14.7458 4.91651 16.195C4.91234 19.015 7.63568 22 11.464 22V22ZM15.489 6.21917C15.649 5.73833 16.329 3.7075 16.9657 3.7075C17.3082 3.7075 17.3998 4.055 17.3998 4.3325C17.3998 5.07833 15.864 9.2 15.5248 10.1133L14.1715 9.87917L15.489 6.21917ZM8.74651 3.8875V3.88667C8.74651 3.42167 9.32401 2.10167 10.589 5.72667L11.9665 9.645C11.3457 9.59417 10.864 9.5275 10.5582 9.7C10.124 8.575 8.74651 5.02417 8.74651 3.8875V3.8875ZM8.65484 11.5308L8.65568 11.5317C9.82151 11.5317 11.3265 15.2267 11.3265 15.7267C11.3265 15.9258 11.1315 16.1717 10.9048 16.1717C10.0723 16.1717 7.84318 13.1675 7.84318 12.355C7.84651 12.0542 8.34818 11.5308 8.65484 11.5308V11.5308ZM7.31484 14.5892C7.76818 14.5892 9.47568 16.945 9.47568 17.445C9.47568 17.6367 9.16901 17.7692 9.01068 17.7692C8.36984 17.7692 8.11901 17.1633 6.97734 15.7617C5.79484 16.9217 7.79318 19.1558 9.29818 19.1558C10.3365 19.1558 11.0132 18.2108 10.8107 17.515C10.9582 17.515 11.1407 17.5267 11.2765 17.4917C11.3207 18.55 11.639 19.8117 12.9365 19.9017C12.9365 19.8667 13.0165 19.6242 13.0165 19.6125C13.0165 18.9325 12.5948 18.3392 12.5948 17.6475C12.5948 16.5417 13.4582 15.4717 14.334 14.8467C14.6523 14.6125 15.039 14.4675 15.4123 14.335C15.799 14.1908 16.209 14.0225 16.5023 13.7333C16.4582 13.2958 16.2757 12.9092 15.8298 12.9092C14.7273 12.9092 11.0298 13.0658 11.0298 11.3583C11.0298 11.0967 11.034 10.8467 11.7232 10.8467C13.009 10.8467 16.2732 11.1592 17.2282 11.9833C17.9482 12.6125 18.1957 16.405 15.994 18.8075L15.9915 18.8083C14.8332 20.0583 13.3523 20.7067 11.6248 20.7067C9.26068 20.7067 7.39318 19.4333 6.49401 17.2575C5.81318 15.5625 6.64568 14.5892 7.31484 14.5892V14.5892ZM12.0657 13.8858C12.4532 14.0075 12.8507 14.0433 13.249 14.1208C12.954 14.3317 12.6923 14.59 12.4407 14.8667C12.329 14.535 12.1932 14.2108 12.0657 13.8858Z" fill="#505F79"/>
</g>
<defs>
<clipPath id="clip0_34_906">
<rect width="20" height="20" fill="white" transform="translate(2 2)"/>
</clipPath>
</defs>
</svg>
